<svg width="102" height="44" viewBox="0 0 102 44" fill="none" xmlns="http://www.w3.org/2000/svg">
<mask id="mask0_64_355" style="mask-type:luminance" maskUnits="userSpaceOnUse" x="1" y="0" width="100" height="26">
<path d="M100.85 0H1.39091V25.9787H100.85V0Z" fill="white"/>
</mask>
<g mask="url(#mask0_64_355)">
<path d="M14.1124 13.7266C13.8203 11.3862 12.2198 10.2394 9.26014 10.2394C6.65615 10.2394 4.99214 11.2106 4.99214 12.6851C4.99214 13.9255 6.00833 14.6628 8.49799 15.1543L11.6609 15.7511C13.9727 16.2074 15.1286 16.6404 16.0686 17.3777C17.0848 18.1617 17.6437 19.3085 17.6437 20.6309C17.6437 23.8372 14.6713 25.8149 9.93337 25.8149C4.87783 25.8149 1.84195 23.5798 1.43548 19.5074H4.33162C4.62377 22.1989 6.66885 23.6968 10.0223 23.6968C12.8295 23.6968 14.8111 22.5032 14.8111 20.7947C14.8111 19.5191 13.7568 18.6883 11.7117 18.2553L7.34208 17.3543C3.78542 16.617 2.17222 15.2479 2.17222 12.9543C2.17222 9.98191 5.00486 8.09787 9.47609 8.09787C13.9473 8.09787 16.3354 9.9 16.9451 13.7149H14.1124V13.7266Z" fill="#F5F9EF"/>
<path d="M24.071 25.4404H21.3019V8.48404H24.071V25.4404Z" fill="#F5F9EF"/>
<path d="M35.6555 25.4404H32.8864V10.5904H26.8147V8.48404H41.7273V10.5904H35.6555V25.4404Z" fill="#F5F9EF"/>
<path d="M57.2877 13.7968C56.7034 11.5617 54.7472 10.216 52.067 10.216C48.3325 10.216 45.8809 12.8606 45.8809 16.8511C45.8809 20.9468 48.3325 23.7085 51.9781 23.7085C55.0139 23.7085 57.1225 21.9298 57.5544 18.9808H60.3616C60.133 20.6543 59.6884 21.7308 58.6976 22.9245C57.0971 24.8553 54.8488 25.8266 51.9273 25.8266C49.0311 25.8266 46.732 24.8553 45.0934 22.9245C43.6961 21.2745 42.9594 19.2149 42.9594 16.8979C42.9594 11.7372 46.7193 8.09787 52.067 8.09787C56.208 8.09787 59.1549 10.134 60.006 13.5628L57.2877 13.7968Z" fill="#F5F9EF"/>
<path d="M98.1004 25.4404L90.136 14.7447C89.1706 13.4223 88.5863 12.5798 88.1163 11.8191C88.1798 12.5798 88.2052 14.183 88.2052 15.0255V25.4521H85.5758V8.48404H88.4085L96.0553 18.8053C96.7793 19.7766 97.7828 21.2979 98.3671 22.316C98.3036 21.3798 98.2782 20.3383 98.2782 19.133V8.58936H100.908V25.4404H98.1004Z" fill="#F5F9EF"/>
<path d="M76.1126 0.912762C77.7512 -0.245749 79.7073 0.18723 79.7073 0.18723C79.7073 0.18723 79.3771 2.32872 77.7385 3.48723C76.0999 4.64574 73.7499 4.36489 73.7499 4.36489C73.7499 4.36489 74.258 3.66276 74.7661 2.7383C75.071 2.2 75.5029 1.33404 76.1126 0.912762Z" fill="#F5F9EF"/>
<path d="M72.1621 2.65638C71.4 2.11808 70.4854 2.31702 70.4854 2.31702C70.4854 2.31702 70.6379 3.3234 71.4 3.8617C72.1621 4.4 73.2545 4.27127 73.2545 4.27127C73.2545 4.27127 73.0132 3.94361 72.7846 3.51064C72.6448 3.25319 72.4416 2.85532 72.1621 2.65638Z" fill="#F5F9EF"/>
<path d="M72.3527 7.77021C72.5813 7.77021 72.7973 7.78191 73.0259 7.79362C72.8227 6.69362 72.8608 5.55851 73.4832 4.57553C72.4035 5.37128 71.8827 6.5883 71.6159 7.80532C71.8573 7.78191 72.0986 7.77021 72.3527 7.77021Z" fill="#F5F9EF"/>
<path d="M72.3527 8.13298C66.9669 8.13298 62.5973 12.1468 62.5973 17.0851C62.5973 22.0351 66.9669 26.0372 72.3527 26.0372C77.7385 26.0372 82.1081 22.0234 82.1081 17.0851C82.0954 12.1468 77.7385 8.13298 72.3527 8.13298ZM76.3285 20.7479L72.34 18.2319L68.3514 20.7479L71.0951 17.0851L68.3514 13.4223L72.34 15.9383L76.3285 13.4223L73.5848 17.0851L76.3285 20.7479Z" fill="#F5F9EF"/>
</g>
<path d="M5.71543 29.4463C6.39831 29.4463 6.99447 29.5362 7.50392 29.7159C8.01338 29.8957 8.51198 30.1703 8.99975 30.5397L7.9104 31.7081C7.2492 31.2188 6.55548 30.9741 5.82924 30.9741C4.99461 30.9741 4.32258 31.2836 3.81312 31.9028C3.31452 32.522 3.06521 33.4956 3.06521 34.8237C3.06521 36.1218 3.31452 37.0854 3.81312 37.7146C4.31173 38.3437 4.98377 38.6582 5.82924 38.6582C6.27366 38.6582 6.66929 38.5883 7.01615 38.4485C7.36302 38.2987 7.73155 38.089 8.12177 37.8194L9.12983 38.9877C8.75044 39.3472 8.2681 39.6468 7.68277 39.8865C7.10828 40.1261 6.46335 40.246 5.74795 40.246C4.77241 40.246 3.91068 40.0363 3.16276 39.6169C2.41485 39.1974 1.83495 38.5833 1.42305 37.7745C1.01115 36.9557 0.805202 35.972 0.805202 34.8237C0.805202 33.6952 1.01657 32.7266 1.43931 31.9178C1.87288 31.1089 2.4582 30.4948 3.19528 30.0754C3.9432 29.656 4.78324 29.4463 5.71543 29.4463ZM19.3789 40.0213L18.6797 37.6247H14.9564L14.2573 40.0213H12.0298L15.5255 29.671H18.1757L21.6551 40.0213H19.3789ZM15.3791 36.1268H18.2407L16.8099 31.1838L15.3791 36.1268ZM36.3209 40.0213H34.2235L33.9308 35.6924C33.8333 34.1446 33.7845 32.9163 33.7845 32.0077V31.4684L31.7358 38.8979H29.7035L27.5248 31.4534C27.5465 32.1125 27.5573 32.6118 27.5573 32.9513C27.5573 33.86 27.5248 34.7937 27.4597 35.7523L27.1833 40.0213H25.1022L25.9964 29.671H28.7604L30.7603 36.9207L32.6464 29.671H35.4429L36.3209 40.0213ZM44.4703 29.671C45.9119 29.671 47.0285 29.9456 47.8197 30.4948C48.6219 31.044 49.0229 31.8678 49.0229 32.9663C49.0229 34.1146 48.6219 34.9785 47.8197 35.5576C47.0176 36.1268 45.9499 36.4114 44.6167 36.4114H43.2997V40.0213H41.1535V29.671H44.4703ZM44.4541 34.9285C45.2237 34.9285 45.8036 34.7838 46.1938 34.4941C46.584 34.1946 46.7791 33.6853 46.7791 32.9663C46.7791 31.738 46.0042 31.1239 44.4541 31.1239H43.2997V34.9285H44.4541ZM62.8239 29.7609C63.561 29.7609 64.1951 29.8857 64.7262 30.1353C65.2682 30.3849 65.68 30.7245 65.9619 31.1539C66.2437 31.5832 66.3846 32.0625 66.3846 32.5918C66.3846 33.161 66.2491 33.7102 65.9781 34.2395C65.718 34.7587 65.279 35.338 64.6611 35.977C64.0433 36.6161 63.1383 37.4599 61.9459 38.5084H66.6285L66.4009 40.0213H59.5883V38.6133C60.9758 37.3152 61.9676 36.3565 62.5637 35.7374C63.1708 35.1083 63.5988 34.5741 63.8482 34.1346C64.1083 33.6853 64.2384 33.2209 64.2384 32.7416C64.2384 32.2823 64.0921 31.9228 63.7994 31.6631C63.5175 31.4035 63.1382 31.2737 62.6613 31.2737C62.2385 31.2737 61.8646 31.3585 61.5394 31.5283C61.225 31.6881 60.8945 31.9577 60.5476 32.3372L59.2794 31.4085C60.2007 30.31 61.3823 29.7609 62.8239 29.7609ZM74.6903 29.7609C75.9693 29.7609 76.9395 30.2102 77.6007 31.1089C78.2727 32.0077 78.6087 33.3009 78.6087 34.9884C78.6087 36.6861 78.2727 37.9892 77.6007 38.8979C76.9395 39.7966 75.9693 40.246 74.6903 40.246C73.4113 40.246 72.4357 39.7966 71.7637 38.8979C71.1025 37.9892 70.7719 36.6861 70.7719 34.9884C70.7719 33.3009 71.1025 32.0077 71.7637 31.1089C72.4357 30.2102 73.4113 29.7609 74.6903 29.7609ZM74.6903 31.2138C74.0724 31.2138 73.6227 31.5034 73.3408 32.0826C73.0589 32.6517 72.9181 33.6203 72.9181 34.9884C72.9181 36.3665 73.0589 37.3451 73.3408 37.9243C73.6227 38.5034 74.0724 38.793 74.6903 38.793C75.3081 38.793 75.7579 38.5084 76.0398 37.9392C76.3217 37.3601 76.4625 36.3764 76.4625 34.9884C76.4625 33.6104 76.3217 32.6368 76.0398 32.0676C75.7579 31.4984 75.3081 31.2138 74.6903 31.2138ZM85.7383 29.7609C86.4754 29.7609 87.1095 29.8857 87.6406 30.1353C88.1826 30.3849 88.5944 30.7245 88.8763 31.1539C89.1582 31.5832 89.299 32.0625 89.299 32.5918C89.299 33.161 89.1635 33.7102 88.8925 34.2395C88.6324 34.7587 88.1934 35.338 87.5756 35.977C86.9577 36.6161 86.0527 37.4599 84.8603 38.5084H89.5429L89.3153 40.0213H82.5028V38.6133C83.8902 37.3152 84.882 36.3565 85.4782 35.7374C86.0852 35.1083 86.5133 34.5741 86.7626 34.1346C87.0228 33.6853 87.1528 33.2209 87.1528 32.7416C87.1528 32.2823 87.0065 31.9228 86.7138 31.6631C86.432 31.4035 86.0527 31.2737 85.5757 31.2737C85.153 31.2737 84.779 31.3585 84.4538 31.5283C84.1395 31.6881 83.8089 31.9577 83.462 32.3372L82.1938 31.4085C83.1151 30.31 84.2967 29.7609 85.7383 29.7609ZM98.2876 33.3108C98.8621 33.3108 99.3824 33.4406 99.8485 33.7003C100.325 33.9499 100.699 34.3243 100.97 34.8237C101.241 35.3129 101.377 35.9021 101.377 36.5911C101.377 37.2901 101.22 37.9192 100.905 38.4785C100.591 39.0276 100.147 39.462 99.5721 39.7816C99.0085 40.0911 98.3634 40.246 97.6372 40.246C96.2932 40.246 95.2959 39.8116 94.6456 38.9428C94.006 38.074 93.6863 36.8808 93.6863 35.3629C93.6863 34.2445 93.8651 33.2659 94.2228 32.4271C94.5913 31.5783 95.1116 30.9242 95.7837 30.4648C96.4666 29.9955 97.2633 29.7609 98.1738 29.7609C99.0735 29.7609 99.8702 29.9756 100.564 30.4049L99.7834 31.5883C99.2849 31.3186 98.7591 31.1838 98.2063 31.1838C97.5126 31.1838 96.9544 31.4735 96.5316 32.0526C96.1197 32.6218 95.8867 33.4106 95.8325 34.4192C96.4936 33.6802 97.3121 33.3108 98.2876 33.3108ZM97.6372 38.823C98.1792 38.823 98.5857 38.6283 98.8567 38.2388C99.1385 37.8394 99.2794 37.3002 99.2794 36.6211C99.2794 35.9321 99.1493 35.4428 98.8892 35.1532C98.6398 34.8536 98.2713 34.7038 97.7836 34.7038C97.4151 34.7038 97.0627 34.7987 96.7267 34.9884C96.4016 35.1682 96.1089 35.4178 95.8487 35.7374C95.8705 36.8258 96.0168 37.6147 96.2877 38.104C96.5696 38.5833 97.0194 38.823 97.6372 38.823Z" fill="#F5F9EF"/>
</svg>
