<svg overflow-visible width="265" height="293" viewBox="0 0 265 293" fill="none" xmlns="http://www.w3.org/2000/svg">
  <path
    d="M217.793 94.1764C208.911 57.2406 179.177 35.0019 138.438 35.0019C81.6723 35.0019 44.4081 78.7059 44.4081 144.649C44.4081 212.332 81.6723 257.97 137.086 257.97C183.232 257.97 215.283 228.576 221.847 179.844H264.518C261.042 207.497 254.285 225.288 239.225 245.013C214.897 276.921 180.722 292.972 136.314 292.972C92.2917 292.972 57.3444 276.921 32.4373 245.013C11.1986 217.747 0 183.712 0 145.422C0 60.1414 57.1513 0 138.438 0C201.381 0 246.175 33.6482 259.112 90.3087L217.793 94.1764Z"
    fill="#77B55A"
  />
</svg>