<svg overflow-visible width="247" height="293" viewBox="0 0 247 293" fill="none" xmlns="http://www.w3.org/2000/svg">
  <path
    d="M192.693 93.0161C188.252 54.34 163.924 35.3886 118.937 35.3886C79.3554 35.3886 54.0621 51.4392 54.0621 75.8052C54.0621 96.3036 69.5084 108.487 107.352 116.609L155.428 126.471C190.569 134.013 208.139 141.168 222.427 153.351C237.873 166.307 246.369 185.259 246.369 207.111C246.369 260.097 201.188 292.778 129.17 292.778C52.3244 292.778 6.17852 255.843 0 188.546H44.022C48.4628 233.024 79.5485 257.776 130.521 257.776C173.192 257.776 203.312 238.052 203.312 209.818C203.312 188.74 187.286 175.01 156.201 167.854L89.7816 152.964C35.7196 140.781 11.1986 118.156 11.1986 80.253C11.1986 31.1343 54.2551 0 122.219 0C190.183 0 226.481 29.7806 235.749 92.8227H192.693V93.0161Z"
    fill="#77B55A"
  />
</svg>